<svg width="100%" height="100%" viewBox="0 0 800 600" xmlns="http://www.w3.org/2000/svg">
  <!-- Sky Gradient -->
  <defs>
    <linearGradient id="skyGradient" x1="0%" y1="0%" x2="0%" y2="100%">
      <stop offset="0%" style="stop-color:#87CEEB;stop-opacity:1" />
      <stop offset="100%" style="stop-color:#FFD700;stop-opacity:1" />
    </linearGradient>
    <!-- Fog Gradient -->
    <linearGradient id="fogGradient" x1="0%" y1="0%" x2="0%" y2="100%">
      <stop offset="0%" style="stop-color:rgba(255,255,255,0);stop-opacity:0" />
      <stop offset="50%" style="stop-color:rgba(255,255,255,0.3);stop-opacity:0.3" />
      <stop offset="100%" style="stop-color:rgba(255,255,255,0.6);stop-opacity:0.6" />
    </linearGradient>
  </defs>

  <!-- Background Sky -->
  <rect width="800" height="600" fill="url(#skyGradient)" />

  <!-- Sun -->
  <circle cx="400" cy="100" r="50" fill="#FFD700">
    <animate attributeName="cy" values="100;90;100" dur="5s" repeatCount="indefinite" />
    <animate attributeName="r" values="50;55;50" dur="5s" repeatCount="indefinite" />
  </circle>

  <!-- Sand Dunes -->
  <path d="M0 400 Q200 300 400 400 T800 400 V600 H0 Z" fill="#EDC9AF">
    <animate attributeName="d" values="M0 400 Q200 300 400 400 T800 400 V600 H0 Z;
                                      M0 400 Q200 320 400 420 T800 400 V600 H0 Z;
                                      M0 400 Q200 300 400 400 T800 400 V600 H0 Z" dur="5s" repeatCount="indefinite" />
  </path>

  <!-- Static Cactus -->
  <!-- Removed existing static cactus code -->

  <!-- Animated Cactus -->
  <!-- Removed existing animated cactus code -->

  <!-- New Cactus -->
  <svg x="360" y="380" width="80" height="80" viewBox="0 0 512 512">
    <!-- Main Body -->
    <path fill="#3DAE42" d="M430.749 295.253v62.85c0 14.951-10.717 27.753-25.436 30.382l-98.032 17.51a31.045 31.045 0 0 1-5.463.487c-14.669 0-27.677-10.497-30.346-25.441c-2.997-16.779 8.176-32.812 24.955-35.809l72.596-12.967v-37.011c0-17.045 13.818-30.863 30.863-30.863s30.863 13.818 30.863 30.862z"/>
    <!-- Left Branch -->
    <path fill="#6FCF6E" d="M195.785 286.803a5.144 5.144 0 0 1-.044-10.287l20.413-.178h.046a5.144 5.144 0 0 1 .044 10.287l-20.413.178h-.046z"/>
    <!-- Right Branch -->
    <path fill="#5BCF5E" d="M277.852 21.848c-39.774 0-72.013 32.239-72.013 72.013V266.15l-30.559-8.235v-72.503c0-22.727-18.424-41.15-41.15-41.15c-22.727 0-41.15 18.423-41.15 41.15v104.032c0 18.603 12.481 34.893 30.443 39.733l82.416 22.21v106.11c0 39.774 32.239 44.362 72.013 44.362s72.013-4.588 72.013-44.362V93.861c.001-39.774-32.239-72.013-72.013-72.013z"/>
  </svg>

  <svg x="100" y="380" width="80" height="80" viewBox="0 0 512 512">
    <!-- Main Body -->
    <path fill="#3DAE42" d="M430.749 295.253v62.85c0 14.951-10.717 27.753-25.436 30.382l-98.032 17.51a31.045 31.045 0 0 1-5.463.487c-14.669 0-27.677-10.497-30.346-25.441c-2.997-16.779 8.176-32.812 24.955-35.809l72.596-12.967v-37.011c0-17.045 13.818-30.863 30.863-30.863s30.863 13.818 30.863 30.862z"/>
    <!-- Left Branch -->
    <path fill="#6FCF6E" d="M195.785 286.803a5.144 5.144 0 0 1-.044-10.287l20.413-.178h.046a5.144 5.144 0 0 1 .044 10.287l-20.413.178h-.046z"/>
    <!-- Right Branch -->
    <path fill="#5BCF5E" d="M277.852 21.848c-39.774 0-72.013 32.239-72.013 72.013V266.15l-30.559-8.235v-72.503c0-22.727-18.424-41.15-41.15-41.15c-22.727 0-41.15 18.423-41.15 41.15v104.032c0 18.603 12.481 34.893 30.443 39.733l82.416 22.21v106.11c0 39.774 32.239 44.362 72.013 44.362s72.013-4.588 72.013-44.362V93.861c.001-39.774-32.239-72.013-72.013-72.013z"/>
  </svg>

  <svg x="200" y="420" width="80" height="80" viewBox="0 0 512 512">
    <!-- Main Body -->
    <path fill="#3DAE42" d="M430.749 295.253v62.85c0 14.951-10.717 27.753-25.436 30.382l-98.032 17.51a31.045 31.045 0 0 1-5.463.487c-14.669 0-27.677-10.497-30.346-25.441c-2.997-16.779 8.176-32.812 24.955-35.809l72.596-12.967v-37.011c0-17.045 13.818-30.863 30.863-30.863s30.863 13.818 30.863 30.862z"/>
    <!-- Left Branch -->
    <path fill="#6FCF6E" d="M195.785 286.803a5.144 5.144 0 0 1-.044-10.287l20.413-.178h.046a5.144 5.144 0 0 1 .044 10.287l-20.413.178h-.046z"/>
    <!-- Right Branch -->
    <path fill="#5BCF5E" d="M277.852 21.848c-39.774 0-72.013 32.239-72.013 72.013V266.15l-30.559-8.235v-72.503c0-22.727-18.424-41.15-41.15-41.15c-22.727 0-41.15 18.423-41.15 41.15v104.032c0 18.603 12.481 34.893 30.443 39.733l82.416 22.21v106.11c0 39.774 32.239 44.362 72.013 44.362s72.013-4.588 72.013-44.362V93.861c.001-39.774-32.239-72.013-72.013-72.013z"/>
  </svg>

  <svg x="300" y="380" width="80" height="80" viewBox="0 0 512 512">
    <!-- Main Body -->
    <path fill="#3DAE42" d="M430.749 295.253v62.85c0 14.951-10.717 27.753-25.436 30.382l-98.032 17.51a31.045 31.045 0 0 1-5.463.487c-14.669 0-27.677-10.497-30.346-25.441c-2.997-16.779 8.176-32.812 24.955-35.809l72.596-12.967v-37.011c0-17.045 13.818-30.863 30.863-30.863s30.863 13.818 30.863 30.862z"/>
    <!-- Left Branch -->
    <path fill="#6FCF6E" d="M195.785 286.803a5.144 5.144 0 0 1-.044-10.287l20.413-.178h.046a5.144 5.144 0 0 1 .044 10.287l-20.413.178h-.046z"/>
    <!-- Right Branch -->
    <path fill="#5BCF5E" d="M277.852 21.848c-39.774 0-72.013 32.239-72.013 72.013V266.15l-30.559-8.235v-72.503c0-22.727-18.424-41.15-41.15-41.15c-22.727 0-41.15 18.423-41.15 41.15v104.032c0 18.603 12.481 34.893 30.443 39.733l82.416 22.21v106.11c0 39.774 32.239 44.362 72.013 44.362s72.013-4.588 72.013-44.362V93.861c.001-39.774-32.239-72.013-72.013-72.013z"/>
  </svg>

  <svg x="400" y="420" width="80" height="80" viewBox="0 0 512 512">
    <!-- Main Body -->
    <path fill="#3DAE42" d="M430.749 295.253v62.85c0 14.951-10.717 27.753-25.436 30.382l-98.032 17.51a31.045 31.045 0 0 1-5.463.487c-14.669 0-27.677-10.497-30.346-25.441c-2.997-16.779 8.176-32.812 24.955-35.809l72.596-12.967v-37.011c0-17.045 13.818-30.863 30.863-30.863s30.863 13.818 30.863 30.862z"/>
    <!-- Left Branch -->
    <path fill="#6FCF6E" d="M195.785 286.803a5.144 5.144 0 0 1-.044-10.287l20.413-.178h.046a5.144 5.144 0 0 1 .044 10.287l-20.413.178h-.046z"/>
    <!-- Right Branch -->
    <path fill="#5BCF5E" d="M277.852 21.848c-39.774 0-72.013 32.239-72.013 72.013V266.15l-30.559-8.235v-72.503c0-22.727-18.424-41.15-41.15-41.15c-22.727 0-41.15 18.423-41.15 41.15v104.032c0 18.603 12.481 34.893 30.443 39.733l82.416 22.21v106.11c0 39.774 32.239 44.362 72.013 44.362s72.013-4.588 72.013-44.362V93.861c.001-39.774-32.239-72.013-72.013-72.013z"/>
  </svg>

  <svg x="500" y="380" width="80" height="80" viewBox="0 0 512 512">
    <!-- Main Body -->
    <path fill="#3DAE42" d="M430.749 295.253v62.85c0 14.951-10.717 27.753-25.436 30.382l-98.032 17.51a31.045 31.045 0 0 1-5.463.487c-14.669 0-27.677-10.497-30.346-25.441c-2.997-16.779 8.176-32.812 24.955-35.809l72.596-12.967v-37.011c0-17.045 13.818-30.863 30.863-30.863s30.863 13.818 30.863 30.862z"/>
    <!-- Left Branch -->
    <path fill="#6FCF6E" d="M195.785 286.803a5.144 5.144 0 0 1-.044-10.287l20.413-.178h.046a5.144 5.144 0 0 1 .044 10.287l-20.413.178h-.046z"/>
    <!-- Right Branch -->
    <path fill="#5BCF5E" d="M277.852 21.848c-39.774 0-72.013 32.239-72.013 72.013V266.15l-30.559-8.235v-72.503c0-22.727-18.424-41.15-41.15-41.15c-22.727 0-41.15 18.423-41.15 41.15v104.032c0 18.603 12.481 34.893 30.443 39.733l82.416 22.21v106.11c0 39.774 32.239 44.362 72.013 44.362s72.013-4.588 72.013-44.362V93.861c.001-39.774-32.239-72.013-72.013-72.013z"/>
  </svg>

  <svg x="600" y="420" width="80" height="80" viewBox="0 0 512 512">
    <!-- Main Body -->
    <path fill="#3DAE42" d="M430.749 295.253v62.85c0 14.951-10.717 27.753-25.436 30.382l-98.032 17.51a31.045 31.045 0 0 1-5.463.487c-14.669 0-27.677-10.497-30.346-25.441c-2.997-16.779 8.176-32.812 24.955-35.809l72.596-12.967v-37.011c0-17.045 13.818-30.863 30.863-30.863s30.863 13.818 30.863 30.862z"/>
    <!-- Left Branch -->
    <path fill="#6FCF6E" d="M195.785 286.803a5.144 5.144 0 0 1-.044-10.287l20.413-.178h.046a5.144 5.144 0 0 1 .044 10.287l-20.413.178h-.046z"/>
    <!-- Right Branch -->
    <path fill="#5BCF5E" d="M277.852 21.848c-39.774 0-72.013 32.239-72.013 72.013V266.15l-30.559-8.235v-72.503c0-22.727-18.424-41.15-41.15-41.15c-22.727 0-41.15 18.423-41.15 41.15v104.032c0 18.603 12.481 34.893 30.443 39.733l82.416 22.21v106.11c0 39.774 32.239 44.362 72.013 44.362s72.013-4.588 72.013-44.362V93.861c.001-39.774-32.239-72.013-72.013-72.013z"/>
  </svg>

  <svg x="700" y="380" width="80" height="80" viewBox="0 0 512 512">
    <!-- Main Body -->
    <path fill="#3DAE42" d="M430.749 295.253v62.85c0 14.951-10.717 27.753-25.436 30.382l-98.032 17.51a31.045 31.045 0 0 1-5.463.487c-14.669 0-27.677-10.497-30.346-25.441c-2.997-16.779 8.176-32.812 24.955-35.809l72.596-12.967v-37.011c0-17.045 13.818-30.863 30.863-30.863s30.863 13.818 30.863 30.862z"/>
    <!-- Left Branch -->
    <path fill="#6FCF6E" d="M195.785 286.803a5.144 5.144 0 0 1-.044-10.287l20.413-.178h.046a5.144 5.144 0 0 1 .044 10.287l-20.413.178h-.046z"/>
    <!-- Right Branch -->
    <path fill="#5BCF5E" d="M277.852 21.848c-39.774 0-72.013 32.239-72.013 72.013V266.15l-30.559-8.235v-72.503c0-22.727-18.424-41.15-41.15-41.15c-22.727 0-41.15 18.423-41.15 41.15v104.032c0 18.603 12.481 34.893 30.443 39.733l82.416 22.21v106.11c0 39.774 32.239 44.362 72.013 44.362s72.013-4.588 72.013-44.362V93.861c.001-39.774-32.239-72.013-72.013-72.013z"/>
  </svg>

  <svg x="800" y="420" width="80" height="80" viewBox="0 0 512 512">
    <!-- Main Body -->
    <path fill="#3DAE42" d="M430.749 295.253v62.85c0 14.951-10.717 27.753-25.436 30.382l-98.032 17.51a31.045 31.045 0 0 1-5.463.487c-14.669 0-27.677-10.497-30.346-25.441c-2.997-16.779 8.176-32.812 24.955-35.809l72.596-12.967v-37.011c0-17.045 13.818-30.863 30.863-30.863s30.863 13.818 30.863 30.862z"/>
    <!-- Left Branch -->
    <path fill="#6FCF6E" d="M195.785 286.803a5.144 5.144 0 0 1-.044-10.287l20.413-.178h.046a5.144 5.144 0 0 1 .044 10.287l-20.413.178h-.046z"/>
    <!-- Right Branch -->
    <path fill="#5BCF5E" d="M277.852 21.848c-39.774 0-72.013 32.239-72.013 72.013V266.15l-30.559-8.235v-72.503c0-22.727-18.424-41.15-41.15-41.15c-22.727 0-41.15 18.423-41.15 41.15v104.032c0 18.603 12.481 34.893 30.443 39.733l82.416 22.21v106.11c0 39.774 32.239 44.362 72.013 44.362s72.013-4.588 72.013-44.362V93.861c.001-39.774-32.239-72.013-72.013-72.013z"/>
  </svg>

  <!-- Clouds (Slower Movement, Edge-to-Edge Loop) -->
  <g class="clouds">
    <!-- Cloud 1 -->
    <path d="M150 100 Q170 80 190 100 Q210 80 230 100 Q250 80 270 100 Q290 80 310 100" fill="#FFF" opacity="0.85">
      <animateTransform attributeName="transform" type="translate" from="-400 0" to="900 0" dur="30s" repeatCount="indefinite" />
    </path>
    <!-- Cloud 2 -->
    <path d="M400 150 Q420 130 440 150 Q460 130 480 150 Q500 130 520 150 Q540 130 560 150" fill="#FFF" opacity="0.75">
      <animateTransform attributeName="transform" type="translate" from="-400 0" to="900 0" dur="35s" repeatCount="indefinite" />
    </path>
  </g>

  <!-- Fog Layers -->
  <rect y="350" width="800" height="250" fill="url(#fogGradient)">
    <animate attributeName="opacity" values="0.5;0.7;0.5" dur="6s" repeatCount="indefinite" />
  </rect>
  <rect y="400" width="800" height="200" fill="url(#fogGradient)">
    <animate attributeName="opacity" values="0.6;0.8;0.6" dur="8s" repeatCount="indefinite" />
  </rect>
</svg>
