<?xml version="1.0" encoding="UTF-8"?>
<svg height="800px" width="800px" version="1.1" id="Layer_1" xmlns="http://www.w3.org/2000/svg" xmlns:xlink="http://www.w3.org/1999/xlink" 
     viewBox="0 0 460 460" xml:space="preserve">
<g id="camel">
    <!-- Camel Body -->
    <path id="body" style="fill:#BC8E57;" d="M87.295,8.153c3.777,4.02,3.573,10.335-0.456,14.104l-14.59,13.649L58.57,21.347
        L73.161,7.698C77.19,3.929,83.518,4.132,87.295,8.153z"/>
    <path id="body" style="fill:#BC8E57;" d="M170,285.496c-27.614,0-50-22.337-50-49.892c-49.706,0-90-40.207-90-89.806v-42.269
        c0-9.708-7.876-17.58-17.6-17.601C5.581,85.783,0,80.269,0,73.464v-9.979c0-4.672,2.645-8.943,6.833-11.032l26.334-13.139
        c4.235-2.113,6.893-6.457,6.832-11.191c-0.087-6.764,5.676-12.174,12.457-12.174H70c4.544,0,8.72,1.53,12.078,4.077l2.512-2.35
        c4.19-3.919,10.866-3.543,14.574,0.954c3.384,4.104,2.74,10.204-1.146,13.839L90,39.971v45.827v42.269
        c0,9.721,7.897,17.601,17.639,17.601c7.516,0,14.328-4.417,17.381-11.271l20.765-46.62C154.429,68.37,173.716,55.863,195,55.863
        s40.571,12.507,49.215,31.914l23.754,53.332c1.478,3.318,5.134,5.225,8.851,4.345c2.382-0.564,4.307-2.316,5.301-4.548
        l23.664-53.129C314.429,68.37,333.716,55.863,355,55.863s40.571,12.507,49.215,31.914L430,145.669
        C446.569,145.669,460,159.1,460,175.669v19.827c0,16.569-13.431,30-30,30c0,33.065-26.863,59.87-60,59.87H170z"/>
    
    <!-- Camel Humps -->
    <path id="hump1" style="fill:#EACD8B;" d="M195,55.863c-21.284,0-40.571,12.507-49.215,31.914l-20.765,46.62
        c-3.053,6.854-9.865,11.271-17.381,11.271c-9.742,0-17.639-7.88-17.639-17.601V84.798c0-4.672-2.645-8.943-6.833-11.032
        l-26.334-13.139c-4.188-2.089-6.833-6.36-6.833-11.032v-9.979c0-6.805,5.581-12.319,12.4-12.319c9.724,0.021,17.6,7.893,17.6,17.601
        v42.269c0,49.599,40.294,89.806,90,89.806c0,27.555,22.386,49.892,50,49.892h200c33.137,0,60-26.805,60-59.87
        c16.569,0,30-13.431,30-30v-19.827c0-16.569-13.431-30-30-30c-16.569,0-30,13.431-30,30v19.827c0,33.065-26.863,59.87-60,59.87H170
        c-27.614,0-50-22.337-50-49.892c-49.706,0-90-40.207-90-89.806v-42.269c0-9.708-7.876-17.58-17.6-17.601
        C5.581,85.783,0,80.269,0,73.464v-9.979c0-4.672,2.645-8.943,6.833-11.032l26.334-13.139c4.235-2.113,6.893-6.457,6.832-11.191
        c-0.087-6.764,5.676-12.174,12.457-12.174H70c4.544,0,8.72,1.53,12.078,4.077l2.512-2.35c4.19-3.919,10.866-3.543,14.574,0.954
        c3.384,4.104,2.74,10.204-1.146,13.839L90,39.971v45.827v42.269c0,9.721,7.897,17.601,17.639,17.601
        c7.516,0,14.328-4.417,17.381-11.271l20.765-46.62C154.429,68.37,173.716,55.863,195,55.863z"/>
    <path id="hump2" style="fill:#EACD8B;" d="M355,55.863c-21.284,0-40.571,12.507-49.215,31.914l-23.664,53.129
        c-0.994,2.232-2.919,3.984-5.301,4.548c-3.717,0.88-7.373-1.027-8.851-4.345l-23.754-53.332
        c-8.644-19.407-27.931-31.914-49.215-31.914s-40.571,12.507-49.215,31.914l-20.765,46.62c-3.053,6.854-9.865,11.271-17.381,11.271
        c-9.742,0-17.639-7.88-17.639-17.601V84.798c0-4.672-2.645-8.943-6.833-11.032l-26.334-13.139
        c-4.188-2.089-6.833-6.36-6.833-11.032v-9.979c0-6.805,5.581-12.319,12.4-12.319c9.724,0.021,17.6,7.893,17.6,17.601v42.269
        c0,49.599,40.294,89.806,90,89.806c0,27.555,22.386,49.892,50,49.892h200c33.137,0,60-26.805,60-59.87
        c16.569,0,30-13.431,30-30v-19.827c0-16.569-13.431-30-30-30c-16.569,0-30,13.431-30,30v19.827c0,33.065-26.863,59.87-60,59.87H170
        c-27.614,0-50-22.337-50-49.892c-49.706,0-90-40.207-90-89.806v-42.269c0-9.708-7.876-17.58-17.6-17.601
        C5.581,85.783,0,80.269,0,73.464v-9.979c0-4.672,2.645-8.943,6.833-11.032l26.334-13.139c4.235-2.113,6.893-6.457,6.832-11.191
        c-0.087-6.764,5.676-12.174,12.457-12.174H70c4.544,0,8.72,1.53,12.078,4.077l2.512-2.35c4.19-3.919,10.866-3.543,14.574,0.954
        c3.384,4.104,2.74,10.204-1.146,13.839L90,39.971v45.827v42.269c0,9.721,7.897,17.601,17.639,17.601
        c7.516,0,14.328-4.417,17.381-11.271l20.765-46.62C154.429,68.37,173.716,55.863,195,55.863z"/>
    
    <!-- Camel Legs -->
    <path id="leg1" style="fill:#BC8E57;" d="M370,265.486v69.772c0,13.926-9.529,25.63-22.435,28.976
        c-4.437,1.15-7.565,5.097-7.565,9.671v71.115c0,5.511-4.477,9.979-10,9.979h-10c0,0-4.477,0-10,0h-10v-89.806
        c-5.523,0-10-4.468-10-9.978v-89.729h20h40H370z"/>
    <path id="leg2" style="fill:#BC8E57;" d="M210,265.486h20v69.772c0,13.926-9.529,25.63-22.435,28.976
        c-4.437,1.15-7.565,5.097-7.565,9.671v71.115c0,5.511-4.477,9.979-10,9.979h-10c0,0-4.477,0-10,0h-10v-89.806
        c-5.523,0-10-4.468-10-9.978v-89.806h60V265.486z"/>
</g>
</svg>
